<svg width="240" height="261" viewBox="0 0 240 261" fill="none" xmlns="http://www.w3.org/2000/svg">
<path d="M145.785 43.1436H145.653C142.777 43.1436 140.445 45.4749 140.445 48.3507V135.751C140.445 138.626 142.777 140.958 145.653 140.958H145.785C148.66 140.958 150.992 138.626 150.992 135.751V48.3507C150.992 45.4749 148.66 43.1436 145.785 43.1436Z" fill="#00B779"/>
<path d="M102.039 259.016C90.618 260.231 78.7637 254.23 76.209 240.445L90.2715 225.408C90.3057 225.409 90.3395 225.411 90.373 225.411H109.078C111.409 225.411 113.309 223.523 113.31 221.183V202.426C113.31 200.09 111.414 198.186 109.078 198.186H90.373C90.0765 198.186 89.7848 198.218 89.5029 198.277L76.2773 179.345V157.296C76.2773 156.609 76.1322 155.95 75.8662 155.35L90.9287 138.616C90.9401 138.616 90.9515 138.617 90.9629 138.617H113.076C115.742 138.617 117.896 136.452 117.896 133.785V111.61C117.896 108.954 115.74 106.79 113.076 106.79H91.2744L73.5664 86.6025C73.9808 85.8927 74.2139 85.0672 74.2139 84.1846L74.2139 62.0107C74.2139 59.354 72.0565 57.1904 69.3926 57.1904H47.7568L42.0635 50.6914C38.9837 40.7999 43.271 30.6674 50.8887 23.918C58.5579 17.1229 69.3844 13.9537 78.9795 17.877L79.8857 18.248L80.2754 17.3506C85.2541 5.88813 95.3945 0.56167 104.706 1.06055C113.966 1.55681 122.501 7.81019 124.447 19.8252L124.447 233.884C124.447 249.203 113.577 257.788 102.039 259.016ZM106 79.2012C108.666 79.201 110.821 77.0356 110.821 74.3691V62.0107C110.821 59.3541 108.664 57.1906 106 57.1904H93.9854L83.29 45.0693C83.328 44.8302 83.3535 44.5779 83.3535 44.3184V37.79C83.3535 35.1235 81.1982 32.958 78.5322 32.958H72.0342C69.3683 32.9581 67.2129 35.1235 67.2129 37.79V44.3184C67.2131 46.9749 69.3704 49.1376 72.0342 49.1377H78.5322C78.6155 49.1377 78.6971 49.1354 78.7764 49.1309L89.0303 60.7617C88.924 61.162 88.8662 61.5835 88.8662 62.0107L88.8662 74.3691C88.8663 77.0316 91.0059 79.2012 93.6758 79.2012H106ZM106 180.612C108.666 180.612 110.821 178.447 110.821 175.78V163.422C110.821 160.755 108.666 158.59 106 158.59H93.6758C91.0059 158.59 88.8663 160.759 88.8662 163.422V175.78C88.8662 178.443 91.0058 180.612 93.6758 180.612H106Z" fill="url(#paint0_linear_1351_3974)" stroke="black" stroke-width="2"/>
<path d="M33.502 193.497C23.5616 191.613 17.6769 186.217 14.6494 179.839C11.5907 173.395 11.4199 165.882 13.0781 159.856L39.4902 135.516C39.8499 135.6 40.2208 135.641 40.6035 135.641H53.0635C55.7331 135.641 57.9148 133.478 57.915 130.81V118.413C57.915 115.735 55.7353 113.569 53.0635 113.569H40.6035C37.9218 113.569 35.7402 115.733 35.7402 118.413V130.678L16.7959 148.125C7.8645 145.111 2.31825 136.245 1.20605 126.645C0.103297 117.125 3.39787 107.19 11.7637 101.899L15.3477 106.007C15.2979 106.287 15.2676 106.575 15.2676 106.87V113.406C15.2676 116.083 17.4333 118.25 20.1191 118.25H26.7002C29.382 118.25 31.5635 116.087 31.5635 113.406V106.87C31.5634 104.19 29.3819 102.026 26.7002 102.026H20.1191C20.071 102.026 20.0231 102.029 19.9766 102.031L12.0664 92.957C7.24226 84.0643 8.97156 74.2335 14.1152 66.543C19.2002 58.9404 27.5034 53.6116 35.7598 53.415L42.3438 60.8555C42.209 61.2984 42.1309 61.7677 42.1309 62.2549L42.1309 84.4971C42.1309 87.1776 44.3124 89.3408 46.9941 89.3408H67.5293L86.4561 110.747C86.3432 111.154 86.2842 111.579 86.2842 112.007L86.2842 134.249C86.2842 134.574 86.317 134.894 86.3799 135.204L70.2432 153.001H49.0811C46.4014 153.001 44.218 155.162 44.2178 157.832V180.075C44.2178 180.555 44.2931 181.02 44.4258 181.457L33.502 193.497Z" fill="url(#paint1_linear_1351_3974)" stroke="black" stroke-width="2"/>
<path d="M75.3965 233.693C64.6779 237.613 53.7746 234.427 46.1777 227.616C38.5798 220.804 34.3956 210.463 36.9844 200.168L51.2422 184.35H72.834C73.107 184.35 73.3767 184.324 73.6357 184.278L87.4629 204.05V220.815L75.3965 233.693ZM63.7207 217.676C66.3695 217.676 68.5195 215.517 68.5195 212.86V206.372C68.5195 203.715 66.3695 201.557 63.7207 201.557H57.2295C54.571 201.557 52.4199 203.713 52.4199 206.372V212.86C52.4199 215.519 54.571 217.676 57.2295 217.676H63.7207Z" fill="url(#paint2_linear_1351_3974)" stroke="black" stroke-width="2"/>
<path d="M140 2.25684C150.042 0.641201 160.478 0.598062 166.4 2.04395V2.04297C166.853 2.15354 167.305 2.26404 167.771 2.37793V2.37891C178.085 4.96939 187.107 8.89147 195.021 16.0605L195.027 16.0654L195.033 16.0713C195.479 16.4618 195.925 16.8517 196.384 17.2539C208.976 28.9968 212.971 48.402 214.128 65.1777V65.1807C214.209 66.2997 214.209 66.2998 214.291 67.4414C214.393 68.9058 214.485 70.371 214.564 71.8359L214.565 71.8496C215.096 79.5875 217.311 85.862 222.185 91.9287V91.9297C222.938 92.9052 223.693 93.8807 224.446 94.8564L224.451 94.8623C224.836 95.3534 225.221 95.8446 225.618 96.3506V96.3516C232.601 105.281 236.007 109.641 237.642 112.59C238.438 114.026 238.781 115.073 238.918 116.115C239.058 117.18 238.99 118.283 238.884 119.905C238.639 121.28 238.243 122.255 237.673 123.095C237.094 123.947 236.305 124.709 235.194 125.629C232.472 127.326 229.441 128.404 226.307 129.612L226.276 129.624L226.246 129.638C224.367 130.507 223.156 131.181 221.82 132.972L221.66 133.187L221.629 133.453C221.265 136.565 221.599 138.925 222.758 141.781C223.773 144.332 224.194 146.205 223.803 148.804C222.371 150.44 220.665 151.599 218.63 152.622L217.764 153.058L218.172 153.937C218.968 155.652 219.633 156.855 220.972 158.256C221.183 159.623 221.308 160.596 221.219 161.499C221.129 162.408 220.814 163.294 220.011 164.424C219.571 164.926 219.132 165.429 218.68 165.946L218.672 165.956C217.348 167.51 216.506 168.863 216.06 170.39C215.616 171.904 215.588 173.5 215.733 175.479L215.736 175.511L215.74 175.542C215.914 176.809 216.112 178.07 216.32 179.323C217.154 184.354 217.145 188.549 214.723 192.81C211.835 195.917 207.472 197.104 203.043 197.59C201.258 197.658 199.477 197.671 197.679 197.658H197.663L193.614 197.695C191.52 197.702 189.425 197.705 187.33 197.704H187.329C185.282 197.707 183.236 197.725 181.194 197.746C180.572 197.74 179.949 197.735 179.308 197.729H179.286C176.523 197.763 174.562 197.919 171.918 199.261L171.731 199.355L171.599 199.518C167.502 204.502 167.421 210.487 167.495 216.242L167.525 218.691L167.512 221.645C167.501 223.731 167.496 225.817 167.496 227.902L167.508 234.157C167.516 236.715 167.506 239.272 167.486 241.831V243.299C167.488 243.787 167.49 244.275 167.495 244.763C167.518 247.063 168.093 248.736 168.985 249.963C169.872 251.182 171.008 251.871 171.995 252.314C172.485 252.534 172.951 252.7 173.323 252.832C173.381 252.853 173.435 252.873 173.486 252.892C171.59 253.908 168.73 254.637 165.365 255.057C161.672 255.518 157.501 255.595 153.617 255.35C149.723 255.103 146.177 254.535 143.715 253.734C142.472 253.33 141.59 252.893 141.074 252.469C140.57 252.054 140.587 251.816 140.617 251.696L140.646 251.577V251.454C140.646 208.903 140.485 168.309 140.323 127.395C140.163 86.7437 140.002 45.7766 140 2.25684Z" fill="url(#paint3_linear_1351_3974)" stroke="black" stroke-width="2"/>
<path d="M147.453 17.4431C147.445 17.4392 147.436 17.4371 147.427 17.4368C147.418 17.4366 147.409 17.4382 147.401 17.4417C147.393 17.4451 147.385 17.4502 147.379 17.4567C147.373 17.4632 147.368 17.4709 147.365 17.4794C146.588 19.6913 145.894 21.7499 145.282 23.6552C144.931 24.7452 144.217 25.2829 143.138 25.2684C142.056 25.2534 141.539 24.382 141.45 23.3401C141.424 23.0478 141.508 22.6622 141.701 22.1834C141.97 21.5142 142.81 19.1969 144.222 15.2317C144.473 14.5272 144.638 14.1175 144.715 14.0025C145.208 13.2768 146.163 13.0345 147.006 13.1303C147.213 13.1525 147.595 13.3082 148.154 13.5973C148.981 14.0254 149.728 14.3977 150.395 14.7143C152.058 15.5009 154.507 16.6706 157.74 18.2234C157.754 18.2299 157.769 18.2336 157.784 18.2344C157.799 18.2351 157.815 18.2328 157.829 18.2276C157.843 18.2225 157.856 18.2145 157.868 18.2043C157.879 18.194 157.888 18.1816 157.895 18.1678C158.478 16.8837 158.803 16.1689 158.87 16.0232C159.218 15.2739 159.736 14.8619 160.423 14.7873C161.668 14.6541 162.667 15.7131 162.558 16.9408C162.54 17.1493 162.422 17.4864 162.205 17.9521C160.952 20.6349 160.002 22.7226 159.354 24.2154C159.087 24.8291 158.83 25.2239 158.583 25.3997C156.863 26.6214 154.801 24.8586 155.703 22.9497C155.79 22.7643 155.973 22.3958 156.25 21.8442C156.26 21.8256 156.265 21.8053 156.267 21.7846C156.268 21.7638 156.266 21.743 156.259 21.7233C156.252 21.7035 156.242 21.6853 156.228 21.6697C156.215 21.6541 156.198 21.6414 156.179 21.6322L147.453 17.4431Z" fill="white"/>
<path d="M190.429 38.886C189.772 39.4921 188.92 39.5128 188.09 39.0944C186.788 38.4414 186.631 36.7868 187.555 35.7353C188.182 35.022 188.911 34.3963 189.411 33.4688C190.374 31.6829 190.85 29.3651 190.281 27.38C190 26.3974 189.954 25.4099 190.708 24.6869C191.257 24.16 192.185 24.0178 192.905 24.3389C193.65 24.6738 194.119 25.2873 194.311 26.1794C194.845 28.6493 194.7 31.1107 193.877 33.5634C193.187 35.6231 192.037 37.3973 190.429 38.886Z" fill="white"/>
<path d="M172.135 36.3486C171.324 36.174 170.852 35.538 170.724 34.6828C170.52 33.3431 171.689 32.3372 172.98 32.476C173.857 32.5703 174.721 32.7891 175.691 32.6717C177.56 32.4469 179.57 31.5665 180.768 30.0702C181.361 29.3301 182.084 28.7658 183.035 28.9511C183.729 29.086 184.334 29.7155 184.477 30.4347C184.622 31.1803 184.409 31.8652 183.837 32.4894C182.252 34.2185 180.311 35.4276 178.013 36.1167C176.083 36.6958 174.124 36.7731 172.135 36.3486Z" fill="white"/>
<path d="M159.072 32.2648C157.069 30.8583 158.539 27.9783 160.896 28.7896C163.694 29.7528 166.82 28.2861 168.517 26.0527C169.284 25.0446 169.764 23.5824 170.432 22.5794C173.063 18.6302 177.932 17.218 182.343 18.4556C183.566 18.7986 184.671 19.3688 184.888 20.7114C185.095 21.9898 183.872 23.0451 182.632 22.8031C182.084 22.6976 181.536 22.2193 181.075 22.0916C178.101 21.2735 174.829 22.4225 173.44 25.2927C173.02 26.1642 172.646 27.0296 172.134 27.8079C171.131 29.3308 169.772 30.5677 168.059 31.5185C165.74 32.8061 163.516 33.0605 160.808 32.7697C160.009 32.6843 159.43 32.516 159.072 32.2648Z" fill="white"/>
<path d="M147.742 35.9702C146.972 33.5302 147.084 31.1228 148.078 28.7482C148.279 28.2668 148.479 27.9231 148.677 27.7173C149.515 26.8482 151.022 26.7773 151.674 27.8699C152.367 29.0329 151.796 29.867 151.305 30.9122C150.642 32.3242 150.855 34.4781 151.608 35.8719C152.273 37.1023 153.179 38.0325 154.326 38.6625C156.291 39.7417 158.719 39.8629 160.777 38.9875C161.291 38.7703 161.912 38.4313 162.64 37.9708C163.152 37.6468 163.523 37.4631 163.752 37.4198C164.873 37.2079 165.8 37.8448 166 38.9383C166.207 40.0705 165.593 40.7854 164.643 41.2639C163.738 41.7201 162.752 42.268 161.792 42.5767C158.378 43.6739 155.117 43.4762 151.966 41.5613C150.488 40.6646 149.242 39.266 148.472 37.8314C148.239 37.3955 147.995 36.7751 147.742 35.9702Z" fill="white"/>
<path d="M173.354 10.8317C174.044 11.5087 174.12 12.4274 173.726 13.3469C173.111 14.7891 171.352 15.0482 170.169 14.107C169.367 13.4683 168.651 12.7147 167.628 12.2253C165.658 11.2813 163.149 10.8928 161.064 11.6152C160.031 11.9718 158.978 12.0753 158.158 11.3004C157.559 10.7358 157.348 9.74051 157.646 8.94541C157.956 8.12258 158.582 7.58309 159.523 7.32694C162.13 6.61674 164.77 6.6396 167.444 7.39552C169.69 8.02967 171.66 9.17505 173.354 10.8317Z" fill="white"/>
<defs>
<linearGradient id="paint0_linear_1351_3974" x1="40.0525" y1="139.473" x2="125.447" y2="139.473" gradientUnits="userSpaceOnUse">
<stop stop-color="#6E4CFF"/>
<stop offset="1" stop-color="#9777FF"/>
</linearGradient>
<linearGradient id="paint1_linear_1351_3974" x1="-0.00189799" y1="128.619" x2="87.5937" y2="128.619" gradientUnits="userSpaceOnUse">
<stop stop-color="#6E4CFF"/>
<stop offset="1" stop-color="#9777FF"/>
</linearGradient>
<linearGradient id="paint2_linear_1351_3974" x1="35.2129" y1="211.688" x2="88.4746" y2="211.688" gradientUnits="userSpaceOnUse">
<stop stop-color="#6E4CFF"/>
<stop offset="1" stop-color="#9777FF"/>
</linearGradient>
<linearGradient id="paint3_linear_1351_3974" x1="287.372" y1="128.34" x2="139.529" y2="128.34" gradientUnits="userSpaceOnUse">
<stop offset="0.158654" stop-color="#08532B"/>
<stop offset="1" stop-color="#00E976"/>
</linearGradient>
</defs>
</svg>
