<svg width="60" height="60" viewBox="0 0 60 60" fill="none" xmlns="http://www.w3.org/2000/svg">
<path fill-rule="evenodd" clip-rule="evenodd" d="M13.2539 7.56348L0.141602 20.3079L7.69723 28.0021L20.5265 16.033C16.4154 15.8181 13.5646 11.4341 13.2539 7.56348Z" fill="#0076BE"/>
<path fill-rule="evenodd" clip-rule="evenodd" d="M17.7266 38.102L30.2501 50.3534C30.6421 45.7427 33.5157 44.8299 37.0116 42.9358L25.1237 30.8652L17.7266 38.102Z" fill="#009035"/>
<path fill-rule="evenodd" clip-rule="evenodd" d="M8.02344 29.7913C12.246 30.3135 14.7063 33.0727 15.8186 36.6129L27.7773 24.528L20.3521 17.7305L8.02344 29.7913Z" fill="#009035"/>
<path fill-rule="evenodd" clip-rule="evenodd" d="M23.2363 16.9604L34.9381 29.2118L42.3396 21.5903L29.8117 9.72363C29.4398 14.094 27.1454 16.0692 23.2363 16.9604Z" fill="#009035"/>
<path fill-rule="evenodd" clip-rule="evenodd" d="M8.11719 47.5859L21.0186 58.9759L28.5751 51.4036L15.785 39.8789C15.4131 44.2492 12.0263 46.6947 8.11719 47.5859Z" fill="#0076BE"/>
<path fill-rule="evenodd" clip-rule="evenodd" d="M51.8114 12.4506L38.9101 1.06055L31.3535 8.63281L44.1436 20.1576C44.5155 15.7872 47.9023 13.3417 51.8114 12.4506Z" fill="#0076BE"/>
<path fill-rule="evenodd" clip-rule="evenodd" d="M47.3381 51.9958L58.9811 39.3748L51.2407 31.9824L39.46 44.4946C43.9274 44.8584 46.4272 48.1716 47.3381 51.9958Z" fill="#0076BE"/>
<path fill-rule="evenodd" clip-rule="evenodd" d="M31.9707 34.8847L39.3821 42.1336L51.512 29.8783C47.0447 29.5145 45.0255 27.2699 43.9297 23.2637L31.9707 34.8847Z" fill="#009035"/>
<path fill-rule="evenodd" clip-rule="evenodd" d="M7.24945 30.8369C8.20148 30.8369 9.14418 31.0302 10.0237 31.4059C10.9033 31.7815 11.7025 32.3321 12.3757 33.0261C13.0489 33.7202 13.5828 34.5442 13.9472 35.4511C14.3115 36.358 14.499 37.3299 14.499 38.3115C14.499 39.7898 14.0738 41.235 13.2773 42.4641C12.4807 43.6933 11.3485 44.6514 10.0238 45.2171C8.69911 45.7828 7.24148 45.9309 5.83522 45.6425C4.42895 45.3541 3.13722 44.6422 2.12335 43.5969C1.10949 42.5515 0.419037 41.2197 0.139307 39.7698C-0.140422 38.3198 0.00313272 36.8169 0.551823 35.4511C1.10051 34.0853 2.0297 32.918 3.22187 32.0966C4.41403 31.2753 5.81564 30.8369 7.24945 30.8369Z" fill="#009035"/>
<path fill-rule="evenodd" clip-rule="evenodd" d="M38.1607 45.0508C40.0833 45.0508 41.9273 45.8383 43.2868 47.24C44.6464 48.6418 45.4102 50.543 45.4102 52.5254C45.4102 54.0037 44.985 55.4488 44.1884 56.678C43.3918 57.9072 42.2596 58.8653 40.9349 59.431C39.6102 59.9967 38.1526 60.1447 36.7463 59.8563C35.3401 59.5679 34.0483 58.856 33.0345 57.8107C32.0206 56.7654 31.3302 55.4335 31.0504 53.9836C30.7707 52.5337 30.9143 51.0308 31.463 49.665C32.0117 48.2992 32.9409 47.1318 34.133 46.3105C35.3252 45.4892 36.7268 45.0508 38.1607 45.0508Z" fill="#009035"/>
<path fill-rule="evenodd" clip-rule="evenodd" d="M52.7504 14.0586C53.7025 14.0586 54.6452 14.2519 55.5247 14.6276C56.4043 15.0032 57.2035 15.5538 57.8766 16.2478C58.5498 16.9419 59.0838 17.7659 59.4481 18.6728C59.8125 19.5796 60 20.5516 60 21.5332C60 23.0115 59.5748 24.4567 58.7782 25.6858C57.9817 26.915 56.8494 27.8731 55.5248 28.4388C54.2001 29.0045 52.7425 29.1526 51.3362 28.8641C49.9299 28.5757 48.6382 27.8639 47.6243 26.8185C46.6105 25.7732 45.92 24.4414 45.6403 22.9914C45.3606 21.5415 45.5041 20.0386 46.0528 18.6728C46.6015 17.307 47.5307 16.1396 48.7228 15.3183C49.915 14.497 51.3166 14.0586 52.7504 14.0586Z" fill="#009035"/>
<path fill-rule="evenodd" clip-rule="evenodd" d="M22.0796 0C23.0316 0 23.9743 0.193341 24.8539 0.568974C25.7334 0.944607 26.5326 1.49518 27.2058 2.18926C27.8789 2.88334 28.4129 3.70733 28.7773 4.61419C29.1416 5.52105 29.3291 6.49302 29.3291 7.47459C29.3291 8.95293 28.9039 10.3981 28.1073 11.6272C27.3107 12.8564 26.1785 13.8145 24.8539 14.3802C23.5292 14.9459 22.0716 15.094 20.6653 14.8056C19.259 14.5171 17.9673 13.8053 16.9534 12.7599C15.9395 11.7146 15.2491 10.3827 14.9694 8.93281C14.6897 7.48288 14.8332 5.97999 15.3819 4.61419C15.9306 3.24839 16.8598 2.08102 18.052 1.2597C19.2442 0.438381 20.6458 0 22.0796 0Z" fill="#009035"/>
<path fill-rule="evenodd" clip-rule="evenodd" d="M22.08 3.35352C23.0559 3.35352 23.9919 3.75323 24.6819 4.46472C25.372 5.17621 25.7597 6.14119 25.7597 7.14739C25.7597 7.89775 25.5439 8.63126 25.1396 9.25516C24.7352 9.87906 24.1606 10.3653 23.4882 10.6525C22.8158 10.9396 22.076 11.0148 21.3622 10.8684C20.6484 10.722 19.9927 10.3606 19.4781 9.83007C18.9635 9.29948 18.6131 8.62348 18.4711 7.88754C18.3291 7.1516 18.402 6.38878 18.6805 5.69554C18.959 5.0023 19.4306 4.40978 20.0357 3.9929C20.6409 3.57602 21.3523 3.35352 22.08 3.35352Z" fill="white"/>
<path fill-rule="evenodd" clip-rule="evenodd" d="M7.24898 34.6006C8.22488 34.6006 9.16082 35.0003 9.85089 35.7118C10.541 36.4233 10.9286 37.3883 10.9286 38.3945C10.9286 39.1448 10.7128 39.8783 10.3085 40.5022C9.90418 41.1261 9.32949 41.6124 8.65712 41.8996C7.98476 42.1867 7.24491 42.2618 6.53112 42.1154C5.81734 41.9691 5.16169 41.6077 4.64708 41.0771C4.13247 40.5466 3.78202 39.8706 3.64004 39.1346C3.49806 38.3987 3.57093 37.6358 3.84943 36.9426C4.12794 36.2494 4.59957 35.6568 5.20468 35.24C5.8098 34.8231 6.52122 34.6006 7.24898 34.6006Z" fill="white"/>
<path fill-rule="evenodd" clip-rule="evenodd" d="M52.749 17.7637C53.2322 17.7637 53.7107 17.8618 54.1571 18.0525C54.6036 18.2431 55.0092 18.5226 55.3509 18.8749C55.6926 19.2272 55.9636 19.6454 56.1485 20.1057C56.3335 20.566 56.4286 21.0594 56.4286 21.5576C56.4286 22.308 56.2128 23.0415 55.8085 23.6654C55.4041 24.2893 54.8295 24.7755 54.1571 25.0627C53.4847 25.3498 52.7449 25.4249 52.0311 25.2785C51.3173 25.1321 50.6617 24.7708 50.1471 24.2402C49.6325 23.7096 49.282 23.0336 49.14 22.2977C48.9981 21.5617 49.0709 20.7989 49.3494 20.1057C49.6279 19.4125 50.0996 18.8199 50.7047 18.4031C51.3098 17.9862 52.0212 17.7637 52.749 17.7637Z" fill="white"/>
<path fill-rule="evenodd" clip-rule="evenodd" d="M38.1601 48.9248C39.136 48.9248 40.072 49.3245 40.762 50.036C41.4521 50.7475 41.8398 51.7125 41.8398 52.7187C41.8398 53.469 41.624 54.2025 41.2196 54.8264C40.8153 55.4503 40.2406 55.9366 39.5683 56.2238C38.8959 56.5109 38.156 56.5861 37.4423 56.4397C36.7285 56.2933 36.0728 55.9319 35.5582 55.4014C35.0436 54.8708 34.6932 54.1948 34.5512 53.4588C34.4092 52.7229 34.4821 51.9601 34.7606 51.2668C35.0391 50.5736 35.5107 49.9811 36.1158 49.5642C36.7209 49.1473 37.4324 48.9248 38.1601 48.9248Z" fill="white"/>
</svg>
